<svg width="140" height="140" viewBox="0 0 140 140" fill="none" xmlns="http://www.w3.org/2000/svg">
<path d="M34.909 25C37.7671 20.0496 43.0491 17 48.7654 17L91.8372 17C97.5534 17 102.835 20.0496 105.694 25L127.229 62.3013C130.088 67.2517 130.088 73.3509 127.229 78.3013L105.694 115.603C102.835 120.553 97.5534 123.603 91.8372 123.603L48.7654 123.603C43.0491 123.603 37.7671 120.553 34.909 115.603L13.3731 78.3013C10.5149 73.3508 10.5149 67.2517 13.3731 62.3013M34.909 25L13.3731 62.3013M34.909 25L13.3731 62.3013M34.909 25L13.3731 62.3013"
      stroke="#dd9de7" stroke-width="20"/>
</svg>
